<svg width="202" height="50" viewBox="0 0 202 50" fill="none" xmlns="http://www.w3.org/2000/svg">
<path d="M93.9956 12.6435L53.899 50L39.2637 2.10889L93.9956 12.6435Z" fill="#FF8D30"/>
<ellipse cx="94.727" cy="33.8974" rx="4.353" ry="4.25194" fill="#88BFEB"/>
<ellipse cx="111.867" cy="21.5315" rx="15.1738" ry="14.8215" fill="#EB9898"/>
<rect width="56.1361" height="28.0819" transform="matrix(0.940449 -0.339936 0.354277 0.93514 102.938 23.3032)" fill="#72A73E"/>
<ellipse cx="110.041" cy="40.6437" rx="2.55056" ry="2.49134" fill="#FFBD30"/>
<ellipse cx="22.7786" cy="9.03916" rx="22.7786" ry="9.03916" transform="matrix(0.970919 0.239407 -0.250218 0.96819 139.238 19.188)" fill="#8EC7F5"/>
<ellipse cx="176.368" cy="12.209" rx="2.59389" ry="2.53367" fill="#FFBD30"/>
<ellipse cx="184.46" cy="9.19969" rx="2.59389" ry="2.53367" fill="#FFBD30"/>
<path d="M4.02588 42.0825H10.039V45.0346C10.039 45.5869 9.59133 46.0346 9.03905 46.0346H5.02588C4.47359 46.0346 4.02588 45.5869 4.02588 45.0346V42.0825Z" fill="#1D2959"/>
<path d="M41.209 42.0825H47.2222V45.0346C47.2222 45.5869 46.7744 46.0346 46.2222 46.0346H42.209C41.6567 46.0346 41.209 45.5869 41.209 45.0346V42.0825Z" fill="#1D2959"/>
<path fill-rule="evenodd" clip-rule="evenodd" d="M28.8202 3.49769C27.6472 3.04018 26.366 2.67305 25.4365 2.69115C24.5613 2.7082 23.3628 3.07871 22.2693 3.5245C21.6572 3.77407 21.0528 4.04927 20.4702 4.3605L20.4663 4.36258C19.777 4.73699 18.9092 4.49126 18.5283 3.81342C18.1473 3.13547 18.3973 2.28217 19.0867 1.90751C19.2875 1.79987 19.491 1.69709 19.6958 1.597C20.0642 1.41695 20.581 1.17631 21.177 0.933333C22.32 0.46734 23.9373 0.029537 25.38 0.00143769C26.9152 -0.0284639 28.6474 0.412718 29.8718 0.890275C30.6356 1.18822 31.3888 1.51746 32.1126 1.90085L32.1135 1.90133C32.8064 2.26973 33.0643 3.12074 32.6897 3.8021C32.3172 4.47965 31.4393 4.7284 30.7526 4.36652C30.5771 4.27488 30.3991 4.18784 30.2201 4.10288C29.8704 3.93686 29.3802 3.71612 28.8202 3.49769Z" fill="#8A4A38"/>
<path fill-rule="evenodd" clip-rule="evenodd" d="M19.2681 1.72656C18.6284 1.72656 18.1099 2.24512 18.1099 2.88479V3.59125C18.1099 4.12431 18.542 4.55644 19.0751 4.55644H19.1011V8.20778H20.1118V4.53033H19.8625C20.5138 4.40353 21.0054 3.82993 21.0054 3.1415C21.0054 2.36005 20.3719 1.72656 19.5905 1.72656H19.2681Z" fill="#F6EF3E"/>
<path fill-rule="evenodd" clip-rule="evenodd" d="M31.9428 1.72656C32.5825 1.72656 33.1011 2.24512 33.1011 2.88479V3.59125C33.1011 4.12431 32.6689 4.55644 32.1359 4.55644H32.1098V8.20778H31.0991V4.53033H31.3485C30.6971 4.40353 30.2055 3.82993 30.2055 3.1415C30.2055 2.36005 30.839 1.72656 31.6204 1.72656H31.9428Z" fill="#F6EF3E"/>
<path d="M0 16.7622C0 11.7916 4.02944 7.76221 9 7.76221H42.2528C47.2234 7.76221 51.2529 11.7916 51.2529 16.7622V42.0823H0V16.7622Z" fill="#8A4A38"/>
<ellipse cx="8.05329" cy="33.2468" rx="5.02106" ry="4.90602" fill="#EF9A9A"/>
<ellipse cx="4.809" cy="9.25666" rx="4.809" ry="9.25666" transform="matrix(0.705105 -0.709103 0.725462 0.688263 29.3711 30.4546)" fill="#93C6EB"/>
<rect width="16.3938" height="9.13788" transform="matrix(0.693231 -0.720716 0.736768 0.676145 19.7539 21.3154)" fill="#C2DEA3"/>
<rect width="8.33475" height="6.2458" rx="1" transform="matrix(0.73793 0.674877 -0.691986 0.721911 10.5845 13.2607)" fill="#C49A6C"/>
<rect x="10.0396" y="23.0498" width="7.06842" height="19.9996" fill="#F57B20"/>
<path d="M10.0396 6.46875H17.108V23.7639C17.108 25.7056 15.5155 27.2797 13.5738 27.2797C11.632 27.2797 10.0396 25.7056 10.0396 23.7639V6.46875Z" fill="#F6A725"/>
<rect x="9.05957" y="21.478" width="9.03459" height="1.96354" fill="#F6EF3E"/>
<rect x="34.1519" y="23.0498" width="7.06842" height="19.9996" fill="#F57B20"/>
<path d="M34.1519 6.46875H41.2203V23.7639C41.2203 25.7056 39.6278 27.2797 37.6861 27.2797C35.7443 27.2797 34.1519 25.7056 34.1519 23.7639V6.46875Z" fill="#F6A725"/>
<rect x="33.1719" y="21.478" width="9.03459" height="1.96354" fill="#F6EF3E"/>
<g filter="url(#filter0_d_13528_1369)">
<path d="M198.541 22.6872C199.513 22.083 200 21.1516 200 19.8929C200 18.2481 199.299 16.9558 197.899 16.016C196.538 15.0594 194.933 14.5811 193.085 14.5811C191.276 14.5811 189.623 15.1013 188.126 16.1419C186.647 17.1656 185.908 18.5334 185.908 20.2453C185.908 20.8831 186.113 21.4117 186.521 21.8313C186.929 22.2341 187.513 22.4355 188.272 22.4355C189.011 22.4355 189.575 22.2341 189.964 21.8313C190.372 21.4117 190.576 20.8831 190.576 20.2453C190.537 19.7586 190.703 19.2635 191.072 18.76C191.442 18.2397 192.113 17.9796 193.085 17.9796C193.902 17.9964 194.486 18.1978 194.836 18.5838C195.205 18.9698 195.371 19.3558 195.332 19.7418C195.332 20.0103 195.235 20.2789 195.04 20.5474C194.846 20.8159 194.641 21.0257 194.427 21.1768C194.233 21.3278 193.912 21.546 193.465 21.8313C193.017 22.1166 192.706 22.318 192.531 22.4355C191.52 23.1571 191.014 24.1138 191.014 25.3054C191.014 25.8928 191.228 26.3879 191.656 26.7907C192.103 27.1767 192.696 27.3697 193.435 27.3697C194.174 27.3697 194.758 27.1767 195.186 26.7907C195.633 26.3879 195.857 25.8928 195.857 25.3054C195.857 25.0536 195.906 24.8187 196.003 24.6005C196.1 24.3823 196.256 24.1809 196.47 23.9963C196.703 23.8117 196.897 23.6606 197.053 23.5432C197.228 23.4257 197.481 23.2746 197.812 23.09C198.162 22.9054 198.405 22.7711 198.541 22.6872Z" fill="#192144"/>
<path d="M173.612 27.9876L178.779 21.7373C179.309 20.9828 180.028 20.5627 180.937 20.4769C181.845 20.3741 182.64 20.5884 183.321 21.12C184.003 21.6516 184.324 22.3632 184.287 23.2549V32.206C184.287 32.7718 184.059 33.252 183.605 33.6464C183.17 34.0236 182.64 34.2122 182.015 34.2122C181.391 34.2122 180.851 34.0236 180.397 33.6464C179.962 33.252 179.744 32.7718 179.744 32.206V26.6501L174.577 32.9004C174.047 33.6549 173.328 34.075 172.419 34.1608C171.511 34.2637 170.716 34.0493 170.034 33.5177C169.353 32.9862 169.031 32.2745 169.069 31.3829V22.4575C169.069 21.8916 169.287 21.4115 169.722 21.0171C170.176 20.6227 170.716 20.4255 171.34 20.4255C171.965 20.4255 172.495 20.6227 172.93 21.0171C173.385 21.4115 173.612 21.8916 173.612 22.4575V27.9876Z" fill="#192144"/>
<path fill-rule="evenodd" clip-rule="evenodd" d="M150.381 32.1182V22.4073C150.381 21.8489 150.142 21.369 149.665 20.9677C149.206 20.5489 148.662 20.3395 148.031 20.3395C147.42 20.3395 146.885 20.5489 146.426 20.9677C145.968 21.369 145.739 21.8489 145.739 22.4073V22.1717C145.509 21.6482 145.051 21.2032 144.363 20.8368C143.675 20.4529 142.892 20.261 142.013 20.261C140.294 20.261 138.708 20.8804 137.256 22.1194C135.842 23.3583 135.136 25.0597 135.136 27.2235C135.136 29.4396 135.833 31.1584 137.227 32.3799C138.622 33.6014 140.217 34.2121 142.013 34.2121C142.892 34.2121 143.666 34.0551 144.334 33.741C145.003 33.4094 145.49 33.0168 145.796 32.5631C145.91 33.0343 146.178 33.4269 146.598 33.741C147.019 34.0376 147.496 34.186 148.031 34.186C148.662 34.186 149.206 33.9853 149.665 33.5839C150.142 33.1826 150.381 32.694 150.381 32.1182ZM143.052 30.3337C144.618 30.3337 145.888 28.9902 145.888 27.333C145.888 25.6757 144.618 24.3322 143.052 24.3322C141.486 24.3322 140.216 25.6757 140.216 27.333C140.216 28.9902 141.486 30.3337 143.052 30.3337Z" fill="#192144"/>
<path d="M129.097 25.3705V22.5637C129.097 21.9935 129.333 21.5096 129.806 21.1122C130.279 20.6974 130.831 20.49 131.462 20.49C132.092 20.49 132.644 20.6974 133.117 21.1122C133.59 21.5096 133.827 21.9935 133.827 22.5637V32.1806C133.827 32.7508 133.59 33.2347 133.117 33.6321C132.664 34.0296 132.112 34.2283 131.462 34.2283C130.811 34.2283 130.25 34.0296 129.777 33.6321C129.323 33.2347 129.097 32.7508 129.097 32.1806V29.3324H123.982V32.1806C123.982 32.7508 123.745 33.2347 123.272 33.6321C122.819 34.0296 122.267 34.2283 121.617 34.2283C120.966 34.2283 120.405 34.0296 119.932 33.6321C119.478 33.2347 119.252 32.7508 119.252 32.1806V22.5637C119.252 21.9935 119.488 21.5096 119.961 21.1122C120.434 20.6974 120.986 20.49 121.617 20.49C122.247 20.49 122.799 20.6974 123.272 21.1122C123.745 21.5096 123.982 21.9935 123.982 22.5637V25.3705H129.097Z" fill="#192144"/>
<path d="M116.878 20.49C117.342 20.49 117.739 20.6619 118.07 21.0055C118.401 21.3492 118.566 22.1412 118.566 22.6223C118.566 23.1034 118.401 23.6009 118.07 23.9445C117.739 24.2882 117.342 24.4091 116.878 24.4091H112.914V32.23C112.914 33.7101 111.583 34.2284 110.248 34.2284C109.01 34.2284 107.827 33.5726 107.827 32.244L107.868 20.49C107.868 20.49 114.775 20.49 116.878 20.49Z" fill="#192144"/>
<path d="M88.598 14.5811V32.0431C88.598 32.6189 88.2781 33.1074 87.8347 33.5087C87.4098 33.9101 86.742 34.1108 86.1323 34.1108C85.5227 34.1108 84.6414 33.9101 84.198 33.5087C83.7731 33.1074 83.5606 32.6188 83.5606 32.0429V18.5225H76.4283V32.0429C76.4283 32.6188 76.2066 33.1074 75.7632 33.5087C75.3383 33.9101 74.4732 34.1108 73.8635 34.1108C73.2539 34.1108 72.4548 33.9101 72.0114 33.5087C71.5865 33.1074 71.374 32.6188 71.374 32.0429V14.5811C77.0826 14.5811 88.598 14.5811 88.598 14.5811Z" fill="#192144"/>
<path d="M104.385 32.0868C102.942 33.4107 101.012 34.0727 98.5936 34.0727C96.1755 34.0727 94.2558 33.4107 92.8346 32.0868C91.3709 30.7432 90.6391 29.0636 90.6391 27.0481C90.6391 25.0129 91.3709 23.3333 92.8346 22.0094C94.2558 20.6855 96.1755 20.0236 98.5936 20.0236C101.012 20.0236 102.942 20.6855 104.385 22.0094C105.827 23.3531 106.548 25.0326 106.548 27.0481C106.548 29.0636 105.827 30.7432 104.385 32.0868ZM100.63 24.9734C100.227 24.5584 99.7285 24.3114 99.1346 24.2324C98.5618 24.1336 98.0103 24.183 97.48 24.3806C96.9709 24.5782 96.5361 24.9141 96.1755 25.3883C95.8361 25.8625 95.6876 26.4158 95.73 27.0481C95.73 27.878 95.9952 28.5696 96.5255 29.1229C97.077 29.6564 97.7664 29.9232 98.5936 29.9232C99.4421 29.9232 100.132 29.6663 100.662 29.1525C101.192 28.619 101.457 27.9175 101.457 27.0481C101.457 26.2182 101.182 25.5266 100.63 24.9734Z" fill="#192144"/>
<path d="M157.154 20.4255C159.866 20.4255 167.092 20.4649 167.092 20.4649C167.092 20.4649 167.097 29.0979 167.097 32.1148C167.097 32.6943 166.853 33.1938 166.366 33.6135C165.9 34.0131 165.479 34.2129 164.769 34.2129C164.06 34.2129 163.698 34.2654 163.211 33.8658C162.745 33.4462 162.317 32.6943 162.317 32.1148V24.3219H159.025C159.025 29.9082 159.026 31.1355 156.921 33.1339C156.145 33.8532 155.147 34.2129 153.928 34.2129C153.196 34.2129 152.767 34.0415 152.301 33.6418C151.835 33.2222 151.474 32.5526 151.474 31.9331C151.474 30.5997 151.76 30.0691 152.492 29.1992C154.591 29.1992 154.5 28.7021 154.368 24.9214V22.5236C154.391 21.9441 154.5 20.4255 154.5 20.4255C154.5 20.4255 156.511 20.4255 157.154 20.4255Z" fill="#192144"/>
<path d="M196.194 31.2749C196.194 32.8971 194.788 34.2121 193.053 34.2121C191.318 34.2121 189.912 32.8971 189.912 31.2749C189.912 29.6527 191.318 28.3377 193.053 28.3377C194.788 28.3377 196.194 29.6527 196.194 31.2749Z" fill="#192144"/>
</g>
<defs>
<filter id="filter0_d_13528_1369" x="69.374" y="13.5811" width="132.625" height="23.6475" filterUnits="userSpaceOnUse" color-interpolation-filters="sRGB">
<feFlood flood-opacity="0" result="BackgroundImageFix"/>
<feColorMatrix in="SourceAlpha" type="matrix" values="0 0 0 0 0 0 0 0 0 0 0 0 0 0 0 0 0 0 127 0" result="hardAlpha"/>
<feOffset dy="1"/>
<feGaussianBlur stdDeviation="1"/>
<feColorMatrix type="matrix" values="0 0 0 0 0 0 0 0 0 0 0 0 0 0 0 0 0 0 0.3 0"/>
<feBlend mode="normal" in2="BackgroundImageFix" result="effect1_dropShadow_13528_1369"/>
<feBlend mode="normal" in="SourceGraphic" in2="effect1_dropShadow_13528_1369" result="shape"/>
</filter>
</defs>
</svg>
